<?xml version="1.0" standalone="no"?>
<!DOCTYPE svg PUBLIC "-//W3C//DTD SVG 1.1//EN"
 "http://www.w3.org/Graphics/SVG/1.1/DTD/svg11.dtd">

<svg version="1.1" xmlns="http://www.w3.org/2000/svg"
  xmlns:xlink="http://www.w3.org/1999/xlink">
<!-- automatically generated by aafigure -->
<path d="M107.1,21.0 C107.1,16.9183336736 109.318333674,10.5 113.4,10.5" fill="none" stroke="#000000" stroke-width="2.0" />
<line x1="113.4" y1="10.5" x2="226.8" y2="10.5" stroke="#000000" stroke-width="2.0" />
<path d="M233.1,21.0 C233.1,16.9183336736 230.881666326,10.5 226.8,10.5" fill="none" stroke="#000000" stroke-width="2.0" />
<g>
    <line x1="96.6" y1="31.5" x2="80.85" y2="26.25" stroke="#000000" stroke-width="2.0" />
    <line x1="96.6" y1="31.5" x2="80.85" y2="36.75" stroke="#000000" stroke-width="2.0" />
    <line x1="96.6" y1="31.5" x2="100.8" y2="31.5" stroke="#000000" stroke-width="2.0" />
</g>
<line x1="107.1" y1="21.0" x2="107.1" y2="84.0" stroke="#000000" stroke-width="2.0" />
<line x1="233.1" y1="21.0" x2="233.1" y2="84.0" stroke="#000000" stroke-width="2.0" />
<g>
    <line x1="264.6" y1="52.5" x2="248.85" y2="57.75" stroke="#000000" stroke-width="2.0" />
    <line x1="264.6" y1="52.5" x2="248.85" y2="47.25" stroke="#000000" stroke-width="2.0" />
    <line x1="239.4" y1="52.5" x2="264.6" y2="52.5" stroke="#000000" stroke-width="2.0" />
</g>
<g>
    <line x1="96.6" y1="73.5" x2="80.85" y2="68.25" stroke="#000000" stroke-width="2.0" />
    <line x1="96.6" y1="73.5" x2="80.85" y2="78.75" stroke="#000000" stroke-width="2.0" />
    <line x1="96.6" y1="73.5" x2="100.8" y2="73.5" stroke="#000000" stroke-width="2.0" />
</g>
<path d="M107.1,84.0 C107.1,88.0816663264 109.318333674,94.5 113.4,94.5" fill="none" stroke="#000000" stroke-width="2.0" />
<line x1="113.4" y1="94.5" x2="226.8" y2="94.5" stroke="#000000" stroke-width="2.0" />
<path d="M233.1,84.0 C233.1,88.0816663264 230.881666326,94.5 226.8,94.5" fill="none" stroke="#000000" stroke-width="2.0" />
<text x="0.0" y="38.85" font-family="sans-serif" font-size="21.0" fill="#000000" >
  ALUop
</text>
<text x="151.2" y="59.85" font-family="sans-serif" font-size="21.0" fill="#000000" >
  ALU
</text>
<text x="277.2" y="59.85" font-family="sans-serif" font-size="21.0" fill="#000000" >
  AluControl (4bits)
</text>
<text x="12.6" y="80.85" font-family="sans-serif" font-size="21.0" fill="#000000" >
  Func
</text>
<text x="126.0" y="80.85" font-family="sans-serif" font-size="21.0" fill="#000000" >
  Control
</text>
</svg>
