<?xml version="1.0" standalone="no"?>
<!DOCTYPE svg PUBLIC "-//W3C//DTD SVG 1.1//EN"
 "http://www.w3.org/Graphics/SVG/1.1/DTD/svg11.dtd">

<svg version="1.1" xmlns="http://www.w3.org/2000/svg"
  xmlns:xlink="http://www.w3.org/1999/xlink">
<!-- automatically generated by aafigure -->
<text x="390.6" y="38.85" font-family="sans-serif" font-size="21.0" fill="#000000" >
  RegDst
</text>
<text x="390.6" y="59.85" font-family="sans-serif" font-size="21.0" fill="#000000" >
  Branch
</text>
<text x="390.6" y="80.85" font-family="sans-serif" font-size="21.0" fill="#000000" >
  MemRead
</text>
<text x="390.6" y="101.85" font-family="sans-serif" font-size="21.0" fill="#000000" >
  MemtoReg
</text>
<text x="390.6" y="122.85" font-family="sans-serif" font-size="21.0" fill="#000000" >
  ALUOp (2bits)
</text>
<text x="390.6" y="143.85" font-family="sans-serif" font-size="21.0" fill="#000000" >
  MemWrite
</text>
<text x="390.6" y="164.85" font-family="sans-serif" font-size="21.0" fill="#000000" >
  ALUSrc
</text>
<text x="390.6" y="185.85" font-family="sans-serif" font-size="21.0" fill="#000000" >
  RegWrite
</text>
<path d="M132.3,21.0 C132.3,16.9183336736 134.518333674,10.5 138.6,10.5" fill="none" stroke="#000000" stroke-width="2.0" />
<line x1="138.6" y1="10.5" x2="340.2" y2="10.5" stroke="#000000" stroke-width="2.0" />
<path d="M346.5,21.0 C346.5,16.9183336736 344.281666326,10.5 340.2,10.5" fill="none" stroke="#000000" stroke-width="2.0" />
<line x1="132.3" y1="21.0" x2="132.3" y2="189.0" stroke="#000000" stroke-width="2.0" />
<line x1="346.5" y1="21.0" x2="346.5" y2="189.0" stroke="#000000" stroke-width="2.0" />
<g>
    <line x1="378.0" y1="31.5" x2="362.25" y2="36.75" stroke="#000000" stroke-width="2.0" />
    <line x1="378.0" y1="31.5" x2="362.25" y2="26.25" stroke="#000000" stroke-width="2.0" />
    <line x1="352.8" y1="31.5" x2="378.0" y2="31.5" stroke="#000000" stroke-width="2.0" />
</g>
<g>
    <line x1="121.8" y1="52.5" x2="106.05" y2="47.25" stroke="#000000" stroke-width="2.0" />
    <line x1="121.8" y1="52.5" x2="106.05" y2="57.75" stroke="#000000" stroke-width="2.0" />
    <line x1="121.8" y1="52.5" x2="126.0" y2="52.5" stroke="#000000" stroke-width="2.0" />
</g>
<g>
    <line x1="378.0" y1="52.5" x2="362.25" y2="57.75" stroke="#000000" stroke-width="2.0" />
    <line x1="378.0" y1="52.5" x2="362.25" y2="47.25" stroke="#000000" stroke-width="2.0" />
    <line x1="352.8" y1="52.5" x2="378.0" y2="52.5" stroke="#000000" stroke-width="2.0" />
</g>
<g>
    <line x1="378.0" y1="73.5" x2="362.25" y2="78.75" stroke="#000000" stroke-width="2.0" />
    <line x1="378.0" y1="73.5" x2="362.25" y2="68.25" stroke="#000000" stroke-width="2.0" />
    <line x1="352.8" y1="73.5" x2="378.0" y2="73.5" stroke="#000000" stroke-width="2.0" />
</g>
<g>
    <line x1="121.8" y1="94.5" x2="106.05" y2="89.25" stroke="#000000" stroke-width="2.0" />
    <line x1="121.8" y1="94.5" x2="106.05" y2="99.75" stroke="#000000" stroke-width="2.0" />
    <line x1="121.8" y1="94.5" x2="126.0" y2="94.5" stroke="#000000" stroke-width="2.0" />
</g>
<g>
    <line x1="378.0" y1="94.5" x2="362.25" y2="99.75" stroke="#000000" stroke-width="2.0" />
    <line x1="378.0" y1="94.5" x2="362.25" y2="89.25" stroke="#000000" stroke-width="2.0" />
    <line x1="352.8" y1="94.5" x2="378.0" y2="94.5" stroke="#000000" stroke-width="2.0" />
</g>
<g>
    <line x1="378.0" y1="115.5" x2="362.25" y2="120.75" stroke="#000000" stroke-width="2.0" />
    <line x1="378.0" y1="115.5" x2="362.25" y2="110.25" stroke="#000000" stroke-width="2.0" />
    <line x1="352.8" y1="115.5" x2="378.0" y2="115.5" stroke="#000000" stroke-width="2.0" />
</g>
<g>
    <line x1="378.0" y1="136.5" x2="362.25" y2="141.75" stroke="#000000" stroke-width="2.0" />
    <line x1="378.0" y1="136.5" x2="362.25" y2="131.25" stroke="#000000" stroke-width="2.0" />
    <line x1="352.8" y1="136.5" x2="378.0" y2="136.5" stroke="#000000" stroke-width="2.0" />
</g>
<g>
    <line x1="378.0" y1="157.5" x2="362.25" y2="162.75" stroke="#000000" stroke-width="2.0" />
    <line x1="378.0" y1="157.5" x2="362.25" y2="152.25" stroke="#000000" stroke-width="2.0" />
    <line x1="352.8" y1="157.5" x2="378.0" y2="157.5" stroke="#000000" stroke-width="2.0" />
</g>
<g>
    <line x1="378.0" y1="178.5" x2="362.25" y2="183.75" stroke="#000000" stroke-width="2.0" />
    <line x1="378.0" y1="178.5" x2="362.25" y2="173.25" stroke="#000000" stroke-width="2.0" />
    <line x1="352.8" y1="178.5" x2="378.0" y2="178.5" stroke="#000000" stroke-width="2.0" />
</g>
<path d="M132.3,189.0 C132.3,193.081666326 134.518333674,199.5 138.6,199.5" fill="none" stroke="#000000" stroke-width="2.0" />
<line x1="138.6" y1="199.5" x2="340.2" y2="199.5" stroke="#000000" stroke-width="2.0" />
<path d="M346.5,189.0 C346.5,193.081666326 344.281666326,199.5 340.2,199.5" fill="none" stroke="#000000" stroke-width="2.0" />
<text x="12.6" y="59.85" font-family="sans-serif" font-size="21.0" fill="#000000" >
  NopSig
</text>
<text x="201.6" y="59.85" font-family="sans-serif" font-size="21.0" fill="#000000" >
  Control
</text>
<text x="12.6" y="101.85" font-family="sans-serif" font-size="21.0" fill="#000000" >
  Opcode
</text>
</svg>
