<?xml version="1.0" standalone="no"?>
<!DOCTYPE svg PUBLIC "-//W3C//DTD SVG 1.1//EN"
 "http://www.w3.org/Graphics/SVG/1.1/DTD/svg11.dtd">

<svg version="1.1" xmlns="http://www.w3.org/2000/svg"
  xmlns:xlink="http://www.w3.org/1999/xlink">
<!-- automatically generated by aafigure -->
<line x1="182.7" y1="10.5" x2="283.5" y2="10.5" stroke="#000000" stroke-width="2.0" />
<line x1="182.7" y1="10.5" x2="182.7" y2="52.5" stroke="#000000" stroke-width="2.0" />
<line x1="283.5" y1="10.5" x2="302.4" y2="42.0" stroke="#000000" stroke-width="2.0" />
<g>
    <line x1="172.2" y1="52.5" x2="156.45" y2="47.25" stroke="#000000" stroke-width="2.0" />
    <line x1="172.2" y1="52.5" x2="156.45" y2="57.75" stroke="#000000" stroke-width="2.0" />
    <line x1="172.2" y1="52.5" x2="182.7" y2="52.5" stroke="#000000" stroke-width="2.0" />
</g>
<line x1="182.7" y1="52.5" x2="182.7" y2="73.5" stroke="#000000" stroke-width="2.0" />
<line x1="302.4" y1="42.0" x2="315.0" y2="63.0" stroke="#000000" stroke-width="2.0" />
<line x1="315.0" y1="63.0" x2="333.9" y2="94.5" stroke="#000000" stroke-width="2.0" />
<line x1="182.7" y1="73.5" x2="201.6" y2="105.0" stroke="#000000" stroke-width="2.0" />
<line x1="201.6" y1="105.0" x2="214.2" y2="126.0" stroke="#000000" stroke-width="2.0" />
<line x1="333.9" y1="94.5" x2="333.9" y2="199.5" stroke="#000000" stroke-width="2.0" />
<line x1="214.2" y1="126.0" x2="226.8" y2="147.0" stroke="#000000" stroke-width="2.0" />
<g>
    <line x1="365.4" y1="136.5" x2="349.65" y2="141.75" stroke="#000000" stroke-width="2.0" />
    <line x1="365.4" y1="136.5" x2="349.65" y2="131.25" stroke="#000000" stroke-width="2.0" />
    <line x1="340.2" y1="136.5" x2="365.4" y2="136.5" stroke="#000000" stroke-width="2.0" />
</g>
<line x1="226.8" y1="147.0" x2="214.2" y2="168.0" stroke="#000000" stroke-width="2.0" />
<line x1="214.2" y1="168.0" x2="201.6" y2="189.0" stroke="#000000" stroke-width="2.0" />
<g>
    <line x1="365.4" y1="178.5" x2="349.65" y2="183.75" stroke="#000000" stroke-width="2.0" />
    <line x1="365.4" y1="178.5" x2="349.65" y2="173.25" stroke="#000000" stroke-width="2.0" />
    <line x1="340.2" y1="178.5" x2="365.4" y2="178.5" stroke="#000000" stroke-width="2.0" />
</g>
<line x1="201.6" y1="189.0" x2="182.7" y2="220.5" stroke="#000000" stroke-width="2.0" />
<line x1="182.7" y1="220.5" x2="182.7" y2="241.5" stroke="#000000" stroke-width="2.0" />
<line x1="333.9" y1="199.5" x2="315.0" y2="231.0" stroke="#000000" stroke-width="2.0" />
<g>
    <line x1="172.2" y1="241.5" x2="156.45" y2="236.25" stroke="#000000" stroke-width="2.0" />
    <line x1="172.2" y1="241.5" x2="156.45" y2="246.75" stroke="#000000" stroke-width="2.0" />
    <line x1="172.2" y1="241.5" x2="182.7" y2="241.5" stroke="#000000" stroke-width="2.0" />
</g>
<line x1="315.0" y1="231.0" x2="302.4" y2="252.0" stroke="#000000" stroke-width="2.0" />
<line x1="182.7" y1="241.5" x2="182.7" y2="283.5" stroke="#000000" stroke-width="2.0" />
<line x1="302.4" y1="252.0" x2="283.5" y2="283.5" stroke="#000000" stroke-width="2.0" />
<line x1="182.7" y1="283.5" x2="283.5" y2="283.5" stroke="#000000" stroke-width="2.0" />
<text x="75.6" y="59.85" font-family="sans-serif" font-size="21.0" fill="#000000" >
  Data1
</text>
<text x="252.0" y="143.85" font-family="sans-serif" font-size="21.0" fill="#000000" >
  ALU
</text>
<text x="378.0" y="143.85" font-family="sans-serif" font-size="21.0" fill="#000000" >
  Result
</text>
<text x="378.0" y="185.85" font-family="sans-serif" font-size="21.0" fill="#000000" >
  Zero
</text>
<text x="75.6" y="248.85" font-family="sans-serif" font-size="21.0" fill="#000000" >
  Data2
</text>
<text x="214.2" y="311.85" font-family="sans-serif" font-size="21.0" fill="#000000" >
  ^
</text>
<text x="201.6" y="332.85" font-family="sans-serif" font-size="21.0" fill="#000000" >
  Control
</text>
</svg>
