<?xml version="1.0" standalone="no"?>
<!DOCTYPE svg PUBLIC "-//W3C//DTD SVG 1.1//EN"
 "http://www.w3.org/Graphics/SVG/1.1/DTD/svg11.dtd">

<svg version="1.1" xmlns="http://www.w3.org/2000/svg"
  xmlns:xlink="http://www.w3.org/1999/xlink">
<!-- automatically generated by aafigure -->
<text x="252.0" y="101.85" font-family="sans-serif" font-size="21.0" fill="#000000" >
  Data
</text>
<text x="239.4" y="122.85" font-family="sans-serif" font-size="21.0" fill="#000000" >
  Memory
</text>
<line x1="182.7" y1="52.5" x2="296.1" y2="52.5" stroke="#000000" stroke-width="2.0" />
<line x1="296.1" y1="52.5" x2="396.9" y2="52.5" stroke="#000000" stroke-width="2.0" />
<line x1="396.9" y1="52.5" x2="396.9" y2="73.5" stroke="#000000" stroke-width="2.0" />
<line x1="182.7" y1="52.5" x2="182.7" y2="94.5" stroke="#000000" stroke-width="2.0" />
<g>
    <line x1="428.4" y1="73.5" x2="412.65" y2="78.75" stroke="#000000" stroke-width="2.0" />
    <line x1="428.4" y1="73.5" x2="412.65" y2="68.25" stroke="#000000" stroke-width="2.0" />
    <line x1="396.9" y1="73.5" x2="428.4" y2="73.5" stroke="#000000" stroke-width="2.0" />
</g>
<g>
    <line x1="172.2" y1="94.5" x2="156.45" y2="89.25" stroke="#000000" stroke-width="2.0" />
    <line x1="172.2" y1="94.5" x2="156.45" y2="99.75" stroke="#000000" stroke-width="2.0" />
    <line x1="172.2" y1="94.5" x2="182.7" y2="94.5" stroke="#000000" stroke-width="2.0" />
</g>
<line x1="396.9" y1="73.5" x2="396.9" y2="178.5" stroke="#000000" stroke-width="2.0" />
<line x1="182.7" y1="94.5" x2="182.7" y2="136.5" stroke="#000000" stroke-width="2.0" />
<g>
    <line x1="172.2" y1="136.5" x2="156.45" y2="131.25" stroke="#000000" stroke-width="2.0" />
    <line x1="172.2" y1="136.5" x2="156.45" y2="141.75" stroke="#000000" stroke-width="2.0" />
    <line x1="172.2" y1="136.5" x2="182.7" y2="136.5" stroke="#000000" stroke-width="2.0" />
</g>
<line x1="182.7" y1="136.5" x2="182.7" y2="178.5" stroke="#000000" stroke-width="2.0" />
<line x1="182.7" y1="178.5" x2="220.5" y2="178.5" stroke="#000000" stroke-width="2.0" />
<line x1="220.5" y1="178.5" x2="321.3" y2="178.5" stroke="#000000" stroke-width="2.0" />
<line x1="321.3" y1="178.5" x2="396.9" y2="178.5" stroke="#000000" stroke-width="2.0" />
<text x="252.0" y="17.85" font-family="sans-serif" font-size="21.0" fill="#000000" >
  MemWrite
</text>
<text x="289.8" y="38.85" font-family="sans-serif" font-size="21.0" fill="#000000" >
  v
</text>
<text x="441.0" y="80.85" font-family="sans-serif" font-size="21.0" fill="#000000" >
  ReadData
</text>
<text x="50.4" y="101.85" font-family="sans-serif" font-size="21.0" fill="#000000" >
  Address
</text>
<text x="25.2" y="143.85" font-family="sans-serif" font-size="21.0" fill="#000000" >
  WriteData
</text>
<text x="214.2" y="206.85" font-family="sans-serif" font-size="21.0" fill="#000000" >
  ^
</text>
<text x="315.0" y="206.85" font-family="sans-serif" font-size="21.0" fill="#000000" >
  ^
</text>
<text x="201.6" y="227.85" font-family="sans-serif" font-size="21.0" fill="#000000" >
  Clk
</text>
<text x="289.8" y="227.85" font-family="sans-serif" font-size="21.0" fill="#000000" >
  MemRead
</text>
</svg>
