<?xml version="1.0" standalone="no"?>
<!DOCTYPE svg PUBLIC "-//W3C//DTD SVG 1.1//EN"
 "http://www.w3.org/Graphics/SVG/1.1/DTD/svg11.dtd">

<svg version="1.1" xmlns="http://www.w3.org/2000/svg"
  xmlns:xlink="http://www.w3.org/1999/xlink">
<!-- automatically generated by aafigure -->
<text x="214.2" y="122.85" font-family="sans-serif" font-size="21.0" fill="#000000" >
  Hazard
</text>
<text x="239.4" y="143.85" font-family="sans-serif" font-size="21.0" fill="#000000" >
  Detector
</text>
<text x="151.2" y="248.85" font-family="sans-serif" font-size="21.0" fill="#000000" >
  MemRead
</text>
<text x="163.8" y="269.85" font-family="sans-serif" font-size="21.0" fill="#000000" >
  (ex)
</text>
<g>
    <line x1="220.5" y1="21.0" x2="225.75" y2="36.75" stroke="#000000" stroke-width="2.0" />
    <line x1="220.5" y1="21.0" x2="215.25" y2="36.75" stroke="#000000" stroke-width="2.0" />
    <line x1="220.5" y1="21.0" x2="220.5" y2="73.5" stroke="#000000" stroke-width="2.0" />
</g>
<line x1="182.7" y1="73.5" x2="220.5" y2="73.5" stroke="#000000" stroke-width="2.0" />
<line x1="220.5" y1="73.5" x2="333.9" y2="73.5" stroke="#000000" stroke-width="2.0" />
<line x1="333.9" y1="73.5" x2="396.9" y2="73.5" stroke="#000000" stroke-width="2.0" />
<line x1="396.9" y1="73.5" x2="396.9" y2="94.5" stroke="#000000" stroke-width="2.0" />
<line x1="182.7" y1="73.5" x2="182.7" y2="115.5" stroke="#000000" stroke-width="2.0" />
<g>
    <line x1="407.4" y1="94.5" x2="423.15" y2="99.75" stroke="#000000" stroke-width="2.0" />
    <line x1="407.4" y1="94.5" x2="423.15" y2="89.25" stroke="#000000" stroke-width="2.0" />
    <line x1="396.9" y1="94.5" x2="407.4" y2="94.5" stroke="#000000" stroke-width="2.0" />
</g>
<line x1="459.9" y1="105.0" x2="485.1" y2="105.0" stroke="#000000" stroke-width="2.0" />
<line x1="94.5" y1="126.0" x2="119.7" y2="126.0" stroke="#000000" stroke-width="2.0" />
<g>
    <line x1="172.2" y1="115.5" x2="156.45" y2="110.25" stroke="#000000" stroke-width="2.0" />
    <line x1="172.2" y1="115.5" x2="156.45" y2="120.75" stroke="#000000" stroke-width="2.0" />
    <line x1="172.2" y1="115.5" x2="182.7" y2="115.5" stroke="#000000" stroke-width="2.0" />
</g>
<line x1="396.9" y1="94.5" x2="396.9" y2="199.5" stroke="#000000" stroke-width="2.0" />
<line x1="182.7" y1="115.5" x2="182.7" y2="157.5" stroke="#000000" stroke-width="2.0" />
<line x1="94.5" y1="168.0" x2="119.7" y2="168.0" stroke="#000000" stroke-width="2.0" />
<g>
    <line x1="172.2" y1="157.5" x2="156.45" y2="152.25" stroke="#000000" stroke-width="2.0" />
    <line x1="172.2" y1="157.5" x2="156.45" y2="162.75" stroke="#000000" stroke-width="2.0" />
    <line x1="172.2" y1="157.5" x2="182.7" y2="157.5" stroke="#000000" stroke-width="2.0" />
</g>
<line x1="182.7" y1="157.5" x2="182.7" y2="199.5" stroke="#000000" stroke-width="2.0" />
<line x1="182.7" y1="199.5" x2="220.5" y2="199.5" stroke="#000000" stroke-width="2.0" />
<line x1="220.5" y1="199.5" x2="396.9" y2="199.5" stroke="#000000" stroke-width="2.0" />
<text x="176.4" y="17.85" font-family="sans-serif" font-size="21.0" fill="#000000" >
  Stall
</text>
<text x="441.0" y="101.85" font-family="sans-serif" font-size="21.0" fill="#000000" >
  Rt
</text>
<text x="478.8" y="101.85" font-family="sans-serif" font-size="21.0" fill="#000000" >
  ex
</text>
<text x="75.6" y="122.85" font-family="sans-serif" font-size="21.0" fill="#000000" >
  Rs
</text>
<text x="113.4" y="122.85" font-family="sans-serif" font-size="21.0" fill="#000000" >
  id
</text>
<text x="75.6" y="164.85" font-family="sans-serif" font-size="21.0" fill="#000000" >
  Rt
</text>
<text x="113.4" y="164.85" font-family="sans-serif" font-size="21.0" fill="#000000" >
  id
</text>
<text x="214.2" y="227.85" font-family="sans-serif" font-size="21.0" fill="#000000" >
  ^
</text>
</svg>
