<?xml version="1.0" standalone="no"?>
<!DOCTYPE svg PUBLIC "-//W3C//DTD SVG 1.1//EN"
 "http://www.w3.org/Graphics/SVG/1.1/DTD/svg11.dtd">

<svg version="1.1" xmlns="http://www.w3.org/2000/svg"
  xmlns:xlink="http://www.w3.org/1999/xlink">
<!-- automatically generated by aafigure -->
<path d="M107.1,21.0 C107.1,16.9183336736 109.318333674,10.5 113.4,10.5" fill="none" stroke="#000000" stroke-width="2.0" />
<line x1="113.4" y1="10.5" x2="176.4" y2="10.5" stroke="#000000" stroke-width="2.0" />
<path d="M182.7,21.0 C182.7,16.9183336736 180.481666326,10.5 176.4,10.5" fill="none" stroke="#000000" stroke-width="2.0" />
<g>
    <line x1="96.6" y1="31.5" x2="80.85" y2="26.25" stroke="#000000" stroke-width="2.0" />
    <line x1="96.6" y1="31.5" x2="80.85" y2="36.75" stroke="#000000" stroke-width="2.0" />
    <line x1="96.6" y1="31.5" x2="100.8" y2="31.5" stroke="#000000" stroke-width="2.0" />
</g>
<line x1="107.1" y1="21.0" x2="107.1" y2="84.0" stroke="#000000" stroke-width="2.0" />
<line x1="182.7" y1="21.0" x2="182.7" y2="84.0" stroke="#000000" stroke-width="2.0" />
<g>
    <line x1="214.2" y1="52.5" x2="198.45" y2="57.75" stroke="#000000" stroke-width="2.0" />
    <line x1="214.2" y1="52.5" x2="198.45" y2="47.25" stroke="#000000" stroke-width="2.0" />
    <line x1="189.0" y1="52.5" x2="214.2" y2="52.5" stroke="#000000" stroke-width="2.0" />
</g>
<g>
    <line x1="96.6" y1="73.5" x2="80.85" y2="68.25" stroke="#000000" stroke-width="2.0" />
    <line x1="96.6" y1="73.5" x2="80.85" y2="78.75" stroke="#000000" stroke-width="2.0" />
    <line x1="96.6" y1="73.5" x2="100.8" y2="73.5" stroke="#000000" stroke-width="2.0" />
</g>
<path d="M107.1,84.0 C107.1,88.0816663264 109.318333674,94.5 113.4,94.5" fill="none" stroke="#000000" stroke-width="2.0" />
<line x1="113.4" y1="94.5" x2="176.4" y2="94.5" stroke="#000000" stroke-width="2.0" />
<path d="M182.7,84.0 C182.7,88.0816663264 180.481666326,94.5 176.4,94.5" fill="none" stroke="#000000" stroke-width="2.0" />
<text x="25.2" y="38.85" font-family="sans-serif" font-size="21.0" fill="#000000" >
  Ch0
</text>
<text x="126.0" y="59.85" font-family="sans-serif" font-size="21.0" fill="#000000" >
  MUX
</text>
<text x="226.8" y="59.85" font-family="sans-serif" font-size="21.0" fill="#000000" >
  Out
</text>
<text x="25.2" y="80.85" font-family="sans-serif" font-size="21.0" fill="#000000" >
  Ch1
</text>
<text x="138.6" y="122.85" font-family="sans-serif" font-size="21.0" fill="#000000" >
  ^
</text>
<text x="126.0" y="143.85" font-family="sans-serif" font-size="21.0" fill="#000000" >
  Sel
</text>
</svg>
