<?xml version="1.0" standalone="no"?>
<!DOCTYPE svg PUBLIC "-//W3C//DTD SVG 1.1//EN"
 "http://www.w3.org/Graphics/SVG/1.1/DTD/svg11.dtd">

<svg version="1.1" xmlns="http://www.w3.org/2000/svg"
  xmlns:xlink="http://www.w3.org/1999/xlink">
<!-- automatically generated by aafigure -->
<line x1="157.5" y1="10.5" x2="321.3" y2="10.5" stroke="#000000" stroke-width="2.0" />
<line x1="157.5" y1="10.5" x2="157.5" y2="115.5" stroke="#000000" stroke-width="2.0" />
<line x1="321.3" y1="10.5" x2="321.3" y2="115.5" stroke="#000000" stroke-width="2.0" />
<g>
    <line x1="147.0" y1="52.5" x2="131.25" y2="47.25" stroke="#000000" stroke-width="2.0" />
    <line x1="147.0" y1="52.5" x2="131.25" y2="57.75" stroke="#000000" stroke-width="2.0" />
    <line x1="147.0" y1="52.5" x2="151.2" y2="52.5" stroke="#000000" stroke-width="2.0" />
</g>
<g>
    <line x1="352.8" y1="52.5" x2="337.05" y2="57.75" stroke="#000000" stroke-width="2.0" />
    <line x1="352.8" y1="52.5" x2="337.05" y2="47.25" stroke="#000000" stroke-width="2.0" />
    <line x1="327.6" y1="52.5" x2="352.8" y2="52.5" stroke="#000000" stroke-width="2.0" />
</g>
<line x1="157.5" y1="115.5" x2="321.3" y2="115.5" stroke="#000000" stroke-width="2.0" />
<g>
    <line x1="321.3" y1="147.0" x2="321.3" y2="168.0" stroke="#000000" stroke-width="2.0" />
    <line x1="315.0" y1="157.5" x2="327.6" y2="157.5" stroke="#000000" stroke-width="2.0" />
    <line x1="333.9" y1="147.0" x2="333.9" y2="168.0" stroke="#000000" stroke-width="2.0" />
    <line x1="327.6" y1="157.5" x2="340.2" y2="157.5" stroke="#000000" stroke-width="2.0" />
</g>
<text x="37.8" y="59.85" font-family="sans-serif" font-size="21.0" fill="#000000" >
  Inputs
</text>
<text x="365.4" y="59.85" font-family="sans-serif" font-size="21.0" fill="#000000" >
  Outputs
</text>
<text x="189.0" y="80.85" font-family="sans-serif" font-size="21.0" fill="#000000" >
  latch
</text>
<text x="189.0" y="143.85" font-family="sans-serif" font-size="21.0" fill="#000000" >
  ^
</text>
<text x="239.4" y="143.85" font-family="sans-serif" font-size="21.0" fill="#000000" >
  ^
</text>
<text x="289.8" y="143.85" font-family="sans-serif" font-size="21.0" fill="#000000" >
  ^
</text>
<text x="176.4" y="164.85" font-family="sans-serif" font-size="21.0" fill="#000000" >
  Clk Rst Sta
</text>
</svg>
