<?xml version="1.0" standalone="no"?>
<!DOCTYPE svg PUBLIC "-//W3C//DTD SVG 1.1//EN"
 "http://www.w3.org/Graphics/SVG/1.1/DTD/svg11.dtd">

<svg version="1.1" xmlns="http://www.w3.org/2000/svg"
  xmlns:xlink="http://www.w3.org/1999/xlink">
<!-- automatically generated by aafigure -->
<line x1="107.1" y1="10.5" x2="270.9" y2="10.5" stroke="#000000" stroke-width="2.0" />
<line x1="107.1" y1="10.5" x2="107.1" y2="115.5" stroke="#000000" stroke-width="2.0" />
<line x1="270.9" y1="10.5" x2="270.9" y2="115.5" stroke="#000000" stroke-width="2.0" />
<g>
    <line x1="96.6" y1="52.5" x2="80.85" y2="47.25" stroke="#000000" stroke-width="2.0" />
    <line x1="96.6" y1="52.5" x2="80.85" y2="57.75" stroke="#000000" stroke-width="2.0" />
    <line x1="96.6" y1="52.5" x2="100.8" y2="52.5" stroke="#000000" stroke-width="2.0" />
</g>
<g>
    <line x1="189.0" y1="45.5" x2="201.6" y2="45.5" stroke="#000000" stroke-width="2.0" />
    <line x1="189.0" y1="56.0" x2="201.6" y2="56.0" stroke="#000000" stroke-width="2.0" />
    <line x1="189.0" y1="66.5" x2="201.6" y2="66.5" stroke="#000000" stroke-width="2.0" />
    <line x1="189.0" y1="77.0" x2="201.6" y2="77.0" stroke="#000000" stroke-width="2.0" />
</g>
<g>
    <line x1="302.4" y1="52.5" x2="286.65" y2="57.75" stroke="#000000" stroke-width="2.0" />
    <line x1="302.4" y1="52.5" x2="286.65" y2="47.25" stroke="#000000" stroke-width="2.0" />
    <line x1="277.2" y1="52.5" x2="302.4" y2="52.5" stroke="#000000" stroke-width="2.0" />
</g>
<line x1="107.1" y1="115.5" x2="270.9" y2="115.5" stroke="#000000" stroke-width="2.0" />
<text x="12.6" y="59.85" font-family="sans-serif" font-size="21.0" fill="#000000" >
  IN16
</text>
<text x="151.2" y="59.85" font-family="sans-serif" font-size="21.0" fill="#000000" >
  Sig
</text>
<text x="315.0" y="59.85" font-family="sans-serif" font-size="21.0" fill="#000000" >
  Out32
</text>
<text x="138.6" y="80.85" font-family="sans-serif" font-size="21.0" fill="#000000" >
  Exte
</text>
<text x="201.6" y="80.85" font-family="sans-serif" font-size="21.0" fill="#000000" >
  der
</text>
</svg>
