<?xml version="1.0" standalone="no"?>
<!DOCTYPE svg PUBLIC "-//W3C//DTD SVG 1.1//EN"
 "http://www.w3.org/Graphics/SVG/1.1/DTD/svg11.dtd">

<svg version="1.1" xmlns="http://www.w3.org/2000/svg"
  xmlns:xlink="http://www.w3.org/1999/xlink">
<!-- automatically generated by aafigure -->
<line x1="107.1" y1="10.5" x2="321.3" y2="10.5" stroke="#000000" stroke-width="2.0" />
<line x1="107.1" y1="10.5" x2="107.1" y2="115.5" stroke="#000000" stroke-width="2.0" />
<line x1="321.3" y1="10.5" x2="321.3" y2="115.5" stroke="#000000" stroke-width="2.0" />
<g>
    <line x1="96.6" y1="52.5" x2="80.85" y2="47.25" stroke="#000000" stroke-width="2.0" />
    <line x1="96.6" y1="52.5" x2="80.85" y2="57.75" stroke="#000000" stroke-width="2.0" />
    <line x1="96.6" y1="52.5" x2="100.8" y2="52.5" stroke="#000000" stroke-width="2.0" />
</g>
<g>
    <line x1="352.8" y1="52.5" x2="337.05" y2="57.75" stroke="#000000" stroke-width="2.0" />
    <line x1="352.8" y1="52.5" x2="337.05" y2="47.25" stroke="#000000" stroke-width="2.0" />
    <line x1="327.6" y1="52.5" x2="352.8" y2="52.5" stroke="#000000" stroke-width="2.0" />
</g>
<line x1="554.4" y1="52.5" x2="567.0" y2="52.5" stroke="#000000" stroke-width="2.0" />
<g>
    <line x1="25.2" y1="63.0" x2="37.8" y2="84.0" stroke="#000000" stroke-width="2.0" />
    <line x1="37.8" y1="63.0" x2="37.8" y2="63.0" stroke="#000000" stroke-width="2.0" />
    <line x1="25.2" y1="73.5" x2="31.5" y2="84.0" stroke="#000000" stroke-width="2.0" />
    <line x1="31.5" y1="63.0" x2="37.8" y2="73.5" stroke="#000000" stroke-width="2.0" />
    <line x1="37.8" y1="63.0" x2="50.4" y2="84.0" stroke="#000000" stroke-width="2.0" />
    <line x1="50.4" y1="63.0" x2="50.4" y2="63.0" stroke="#000000" stroke-width="2.0" />
    <line x1="37.8" y1="73.5" x2="44.1" y2="84.0" stroke="#000000" stroke-width="2.0" />
    <line x1="44.1" y1="63.0" x2="50.4" y2="73.5" stroke="#000000" stroke-width="2.0" />
</g>
<line x1="107.1" y1="115.5" x2="321.3" y2="115.5" stroke="#000000" stroke-width="2.0" />
<text x="12.6" y="59.85" font-family="sans-serif" font-size="21.0" fill="#000000" >
  Read
</text>
<text x="151.2" y="59.85" font-family="sans-serif" font-size="21.0" fill="#000000" >
  Instruction
</text>
<text x="365.4" y="59.85" font-family="sans-serif" font-size="21.0" fill="#000000" >
  Instruction [31
</text>
<text x="567.0" y="59.85" font-family="sans-serif" font-size="21.0" fill="#000000" >
  0]
</text>
<text x="12.6" y="80.85" font-family="sans-serif" font-size="21.0" fill="#000000" >
  A
</text>
<text x="50.4" y="80.85" font-family="sans-serif" font-size="21.0" fill="#000000" >
  r
</text>
<text x="176.4" y="80.85" font-family="sans-serif" font-size="21.0" fill="#000000" >
  Memory
</text>
<text x="163.8" y="143.85" font-family="sans-serif" font-size="21.0" fill="#000000" >
  ^
</text>
<text x="151.2" y="164.85" font-family="sans-serif" font-size="21.0" fill="#000000" >
  Clk
</text>
</svg>
