<?xml version="1.0" standalone="no"?>
<!DOCTYPE svg PUBLIC "-//W3C//DTD SVG 1.1//EN"
 "http://www.w3.org/Graphics/SVG/1.1/DTD/svg11.dtd">

<svg version="1.1" xmlns="http://www.w3.org/2000/svg"
  xmlns:xlink="http://www.w3.org/1999/xlink">
<!-- automatically generated by aafigure -->
<g>
    <line x1="296.1" y1="42.0" x2="301.35" y2="26.25" stroke="#000000" stroke-width="2.0" />
    <line x1="296.1" y1="42.0" x2="290.85" y2="26.25" stroke="#000000" stroke-width="2.0" />
    <line x1="296.1" y1="42.0" x2="296.1" y2="63.0" stroke="#000000" stroke-width="2.0" />
</g>
<line x1="182.7" y1="73.5" x2="396.9" y2="73.5" stroke="#000000" stroke-width="2.0" />
<line x1="182.7" y1="73.5" x2="182.7" y2="262.5" stroke="#000000" stroke-width="2.0" />
<line x1="396.9" y1="73.5" x2="396.9" y2="262.5" stroke="#000000" stroke-width="2.0" />
<g>
    <line x1="428.4" y1="94.5" x2="412.65" y2="99.75" stroke="#000000" stroke-width="2.0" />
    <line x1="428.4" y1="94.5" x2="412.65" y2="89.25" stroke="#000000" stroke-width="2.0" />
    <line x1="403.2" y1="94.5" x2="428.4" y2="94.5" stroke="#000000" stroke-width="2.0" />
</g>
<g>
    <line x1="172.2" y1="115.5" x2="156.45" y2="110.25" stroke="#000000" stroke-width="2.0" />
    <line x1="172.2" y1="115.5" x2="156.45" y2="120.75" stroke="#000000" stroke-width="2.0" />
    <line x1="172.2" y1="115.5" x2="176.4" y2="115.5" stroke="#000000" stroke-width="2.0" />
</g>
<g>
    <line x1="428.4" y1="136.5" x2="412.65" y2="141.75" stroke="#000000" stroke-width="2.0" />
    <line x1="428.4" y1="136.5" x2="412.65" y2="131.25" stroke="#000000" stroke-width="2.0" />
    <line x1="403.2" y1="136.5" x2="428.4" y2="136.5" stroke="#000000" stroke-width="2.0" />
</g>
<g>
    <line x1="172.2" y1="157.5" x2="156.45" y2="152.25" stroke="#000000" stroke-width="2.0" />
    <line x1="172.2" y1="157.5" x2="156.45" y2="162.75" stroke="#000000" stroke-width="2.0" />
    <line x1="172.2" y1="157.5" x2="176.4" y2="157.5" stroke="#000000" stroke-width="2.0" />
</g>
<g>
    <line x1="172.2" y1="199.5" x2="156.45" y2="194.25" stroke="#000000" stroke-width="2.0" />
    <line x1="172.2" y1="199.5" x2="156.45" y2="204.75" stroke="#000000" stroke-width="2.0" />
    <line x1="172.2" y1="199.5" x2="176.4" y2="199.5" stroke="#000000" stroke-width="2.0" />
</g>
<g>
    <line x1="172.2" y1="241.5" x2="156.45" y2="236.25" stroke="#000000" stroke-width="2.0" />
    <line x1="172.2" y1="241.5" x2="156.45" y2="246.75" stroke="#000000" stroke-width="2.0" />
    <line x1="172.2" y1="241.5" x2="176.4" y2="241.5" stroke="#000000" stroke-width="2.0" />
</g>
<line x1="182.7" y1="262.5" x2="396.9" y2="262.5" stroke="#000000" stroke-width="2.0" />
<text x="252.0" y="17.85" font-family="sans-serif" font-size="21.0" fill="#000000" >
  RegWrite
</text>
<text x="441.0" y="101.85" font-family="sans-serif" font-size="21.0" fill="#000000" >
  ReadData1
</text>
<text x="37.8" y="122.85" font-family="sans-serif" font-size="21.0" fill="#000000" >
  ReadReg1
</text>
<text x="239.4" y="122.85" font-family="sans-serif" font-size="21.0" fill="#000000" >
  Register
</text>
<text x="252.0" y="143.85" font-family="sans-serif" font-size="21.0" fill="#000000" >
  File
</text>
<text x="441.0" y="143.85" font-family="sans-serif" font-size="21.0" fill="#000000" >
  ReadData2
</text>
<text x="37.8" y="164.85" font-family="sans-serif" font-size="21.0" fill="#000000" >
  ReadReg2
</text>
<text x="37.8" y="206.85" font-family="sans-serif" font-size="21.0" fill="#000000" >
  WriteReg
</text>
<text x="25.2" y="248.85" font-family="sans-serif" font-size="21.0" fill="#000000" >
  WriteData
</text>
<text x="277.2" y="290.85" font-family="sans-serif" font-size="21.0" fill="#000000" >
  ^
</text>
<text x="264.6" y="311.85" font-family="sans-serif" font-size="21.0" fill="#000000" >
  Clk
</text>
</svg>
